<svg viewBox="11.765366480938416 34.86046394000001 36.09035190615836 9.52344" xmlns="http://www.w3.org/2000/svg" data-name="レイヤー 2" id="_レイヤー_2" style="max-height: 500px" width="36.09035190615836" height="9.52344">
  <defs>
    <style>
      .cls-1 {
        fill: #ed6c00;
        stroke-width: 0px;
      }
    </style>
  </defs>
  <g id="JR_logo">
    <g>
      <path d="m22.9,0h28.67c5.07-.01,7.91,4.17,7.91,10.29s-2.85,10.02-7.93,10.02h-1.59l10.22,11.7h-10.51l-14.89-18.87h14.55c1.14,0,2.41-.22,2.41-2.84s-1.28-2.87-2.64-2.87h-18.57v16.62c0,2.4-1.75,8.44-15.26,8.44C1.71,32.49,0,26.45,0,24.09v-10.96h7.65v8.91c0,2.05,2.53,3.29,7.6,3.29,5.05,0,7.66-1.27,7.66-3.29V0Z" class="cls-1"/>
      <g>
        <path d="m38.71,35.11s.53.2,1.84.57v1.39s-.74-.22-1.84-.55v-1.41Z" class="cls-1"/>
        <g>
          <path d="m11.92,39.95v1.76c0,2.23,2.24,2.22,2.24,2.22h2.56s2.2,0,2.2-2.12v-6.45h-1.45v5.99c0,1.26-1.21,1.12-1.21,1.12h-1.67c-1.34,0-1.22-1.13-1.22-1.13v-1.39h-1.44Z" class="cls-1"/>
          <path d="m33.94,41.41v2.58h-1.33v-2.57s-1.43,2.04-3.79,2.38v-1.23s1.62-.3,1.99-1.21h-1.68v-4.06h3.41v-.41h-3.72v-1.12h3.72v-.61h1.39v.61h3.74v1.12h-3.73v.41h3.45v4.07h-1.71c.45.92,2.05,1.21,2.05,1.21v1.23c-2.32-.31-3.79-2.37-3.79-2.37Zm-1.38-2.62v-.38h-2v.38h2Zm0,1.44v-.38h-2v.38h2Zm3.37-1.44v-.38h-2v.38h2Zm0,1.44v-.38h-2v.38h2Z" class="cls-1"/>
          <path d="m38.7,37.6s.53.2,1.84.57v1.39s-.74-.22-1.84-.55v-1.41Z" class="cls-1"/>
          <path d="m38.73,44.09c.91-.62,1.84-1.58,1.84-1.58h0v-1.75s-.94.97-1.84,1.58v1.75Z" class="cls-1"/>
          <path d="m43.13,35.89h4.12v1.21h-4.75c-.2.28-.66.72-.66.72h5.21v2.31s.48,0,.48,0v1.21h-.47v2.43h-5.55v-2.43h-.66v-1.22s.66,0,.66,0v-2.18c-.21.14-.52.26-.52.26v-1.5c.86-.55,1.06-1.58,1.06-1.58h1.45c-.09.39-.36.77-.36.77Zm2.55,4.24v-1h-.74v1h.74Zm-2.06,0v-1h-.74v1h.74Zm0,2.38v-1.17h-.77v1.17h.77Zm2.09,0v-1.17h-.77v1.17h.77Z" class="cls-1"/>
          <path d="m20.2,43.93v-8.57h5.42c1.57,0,1.95,1.04,1.95,1.48v1.92c0,.83-.76,1.04-.76,1.04,0,0,.86.26.86,1.21v2.93h-1.48v-2.45c0-.89-.83-.89-.83-.89h-3.66s0,3.35,0,3.35h-1.48Zm5.15-4.93s.72,0,.72-.75v-.68c0-.74-.72-.74-.72-.74h-3.67v2.16h3.67Z" class="cls-1"/>
        </g>
      </g>
    </g>
  </g>
</svg>