<?xml version="1.0" encoding="UTF-8"?>
<!-- Created with Inkscape (http://www.inkscape.org/) -->
<svg width="39.495mm" height="9.9621mm" version="1.1" viewBox="0 0 39.495 9.9621" xmlns="http://www.w3.org/2000/svg">
<title>Logo of Toei Transportation (in English and Japanese)</title>
 <defs>
  <clipPath id="vlpn">
   <path d="m142.6 391.6h3.101v-4.276h-3.101z"/>
  </clipPath>
  <clipPath id="vlpm">
   <path d="m146.72 391.6h3.029v-4.276h-3.029z"/>
  </clipPath>
  <clipPath id="vlpl">
   <path d="m150.61 391.6h3.52v-4.276h-3.52z"/>
  </clipPath>
  <clipPath id="vlpk">
   <path d="m155.16 391.6h3.056v-4.276h-3.056z"/>
  </clipPath>
  <clipPath id="vlpj">
   <path d="m159.4 391.66h3.083v-4.413h-3.083z"/>
  </clipPath>
  <clipPath id="vlpi">
   <path d="m163.77 391.6h2.943v-4.276h-2.943z"/>
  </clipPath>
  <clipPath id="vlph">
   <path d="m167.71 391.66h3.138v-4.413h-3.138z"/>
  </clipPath>
  <clipPath id="vlpg">
   <path d="m172.16 391.6h3.029v-4.276h-3.029z"/>
  </clipPath>
  <clipPath id="vlpf">
   <path d="m175.93 391.6h3.098v-4.276h-3.098z"/>
  </clipPath>
  <clipPath id="vlpe">
   <path d="m183.12 391.6h3.097v-4.276h-3.097z"/>
  </clipPath>
  <clipPath id="vlpd">
   <path d="m179.31 391.6h3.523v-4.276h-3.523z"/>
  </clipPath>
  <clipPath id="vlpc">
   <path d="m187.31 391.6h0.559v-4.276h-0.559z"/>
  </clipPath>
  <clipPath id="vlpb">
   <path d="m189.2 391.66h3.138v-4.413h-3.138z"/>
  </clipPath>
  <clipPath id="vlpa">
   <path d="m193.61 391.6h3.054v-4.276h-3.054z"/>
  </clipPath>
 </defs>
 <g transform="translate(-41.142 -119.43)">
  <g transform="matrix(.35278 0 0 -.35278 80.485 124.57)">
   <path d="m0 0h-7.983c-0.76 0-1.394 0.239-1.834 0.691-0.425 0.438-0.651 1.056-0.653 1.785l-1e-3 2.809c0 0.236-0.193 0.429-0.429 0.429h-2.55c-0.236 0-0.429-0.193-0.429-0.429v-0.299c0-0.236 0.193-0.429 0.429-0.429h1.896v-1.79c0-1.123-0.78-1.729-1.247-2.091l-0.059-0.046c-0.336-0.26-0.693-0.496-1.092-0.72-0.102-0.058-0.175-0.155-0.199-0.268-0.022-0.102-1e-3 -0.205 0.061-0.289l0.096-0.133c0.091-0.124 0.234-0.195 0.391-0.195 0.089 0 0.175 0.023 0.252 0.067 0.399 0.229 0.762 0.472 1.111 0.743 0.251 0.198 0.671 0.523 1.034 0.992 0.555-1.185 1.698-1.836 3.223-1.836h7.983c0.236 0 0.429 0.194 0.429 0.43v0.15c0 0.236-0.193 0.429-0.429 0.429" style="fill:#221815"/>
  </g>
  <g transform="matrix(.35278 0 0 -.35278 77.85 122.36)">
   <path d="m0 0c0.023 0.025 0.056 0.037 0.09 0.038h2.233v-1.041h-2.361v0.919c2e-3 0.023 9e-3 0.056 0.038 0.084m2.323-3.052h-2.36v1.04h2.36zm1.083 1.04h2.36v-1.04h-2.36zm0 2.05h2.232c0.034 0 0.066-0.013 0.089-0.038 0.025-0.024 0.039-0.059 0.039-0.092v-0.911h-2.36zm-4.096-5.775h0.224c0.236 0 0.428 0.193 0.428 0.43v1.246h2.361v-1.246c0-0.237 0.192-0.43 0.429-0.43h0.225c0.235 0 0.429 0.193 0.429 0.43v1.246h2.36v-1.246c0-0.237 0.193-0.43 0.429-0.43h0.225c0.237 0 0.429 0.193 0.429 0.43v5.288c0 0.587-0.477 1.065-1.064 1.065h-1.521l2.384 1.501c0.062 0.04 0.112 0.092 0.148 0.157 0.034 0.063 0.053 0.135 0.053 0.208v0.333c0 0.114-0.045 0.222-0.126 0.302-0.08 0.082-0.188 0.127-0.303 0.127h-7.11c-0.116 0-0.225-0.045-0.305-0.127-0.081-0.08-0.126-0.188-0.126-0.302v-0.149c0-0.115 0.045-0.223 0.126-0.304 0.08-0.082 0.189-0.127 0.305-0.127h5.634l-2.561-1.613-0.893 1.077c-0.082 0.099-0.202 0.154-0.33 0.154-0.1 0-0.198-0.034-0.275-0.098l-0.197-0.148c-0.088-0.073-0.128-0.162-0.139-0.276-0.01-0.114 0.025-0.225 0.097-0.313l0.358-0.402h-1.06c-0.587 0-1.065-0.478-1.065-1.065v-5.288c0-0.237 0.193-0.43 0.431-0.43" style="fill:#221815"/>
  </g>
  <g transform="matrix(.35278 0 0 -.35278 75.763 121.5)">
   <path d="m0 0c0.709-0.233 1.514-0.406 1.931-0.49 0.146-0.03 0.298-0.058 0.463-0.088 0.027-4e-3 0.055-7e-3 0.082-7e-3 0.215 0 0.4 0.148 0.44 0.353l0.069 0.26c0.019 0.107-3e-3 0.215-0.065 0.305-0.068 0.1-0.178 0.169-0.301 0.192-0.159 0.027-0.319 0.057-0.475 0.088-0.665 0.133-1.254 0.302-1.752 0.46-0.043 0.013-0.088 0.02-0.132 0.02-0.181 0-0.347-0.116-0.411-0.288l-0.085-0.265c-0.042-0.112-0.038-0.236 0.012-0.342 0.046-0.095 0.125-0.165 0.224-0.198" style="fill:#221815"/>
  </g>
  <g transform="matrix(.35278 0 0 -.35278 66.503 121.52)">
   <path d="m0 0h-1.909c0.017 0.022 0.204 0.25 0.254 0.318 0.193 0.267 0.406 0.553 0.588 0.868 0.056 0.097 0.069 0.21 0.035 0.317-0.033 0.109-0.113 0.199-0.217 0.247l-0.135 0.064c-0.061 0.029-0.127 0.043-0.194 0.043-0.163 0-0.316-0.087-0.399-0.229-0.154-0.262-0.325-0.486-0.509-0.739-0.215-0.294-0.45-0.619-0.7-0.889h-9.341c-0.238 0-0.43-0.191-0.43-0.429v-2.101c0-0.237 0.192-0.429 0.43-0.429h0.224c0.238 0 0.429 0.192 0.429 0.429v1.521h11.22v-1.521c0-0.237 0.193-0.429 0.429-0.429h0.225c0.236 0 0.43 0.192 0.43 0.429v2.101c0 0.238-0.194 0.429-0.43 0.429" style="fill:#221815"/>
  </g>
  <path d="m65.851 124.57h-3.1147v-0.57679h3.1147zm-2.5961-2.0736h2.0768v0.47061h-2.0768zm2.8265 1.1412h-1.9008l0.18697-0.31468h1.1956c0.08326 0 0.15134-0.0681 0.15134-0.15205v-0.87877c0-0.0836-0.06809-0.15169-0.15134-0.15169h-2.5389c-0.08361 0-0.15134 0.0681-0.15134 0.15169v0.87877c0 0.084 0.06773 0.15205 0.15134 0.15205h0.91652l-0.18732 0.31468h-1.2478c-0.08361 0-0.1517 0.0674-0.1517 0.15134v0.98566c0 0.0833 0.06809 0.15134 0.1517 0.15134h3.5758c0.08361 0 0.15134-0.0681 0.15134-0.15134v-0.98566c0-0.084-0.06773-0.15134-0.15134-0.15134" style="fill:#221815"/>
  <g transform="matrix(.35278 0 0 -.35278 62.578 121.21)">
   <path d="m0 0c0.158-0.17 0.309-0.35 0.448-0.533 0.087-0.112 0.217-0.175 0.358-0.175 0.088 0 0.173 0.024 0.246 0.074l0.123 0.083c0.097 0.064 0.161 0.161 0.181 0.275 0.019 0.114-9e-3 0.228-0.079 0.319-0.167 0.221-0.339 0.399-0.526 0.602-0.078 0.085-0.162 0.165-0.236 0.24-0.103 0.105-0.242 0.163-0.39 0.163-0.1 0-0.199-0.028-0.286-0.079l-0.169-0.101c-0.086-0.051-0.141-0.138-0.152-0.238-0.013-0.104 0.025-0.206 0.102-0.279 0.132-0.125 0.26-0.22 0.38-0.351" style="fill:#221815"/>
  </g>
  <g transform="matrix(.35278 0 0 -.35278 64.038 121.19)">
   <path d="m0 0c0.137-0.188 0.267-0.383 0.386-0.581 0.081-0.134 0.228-0.217 0.385-0.217 0.071 0 0.139 0.016 0.203 0.049l0.132 0.068c0.104 0.054 0.178 0.143 0.21 0.255 0.032 0.11 0.017 0.225-0.043 0.324-0.141 0.238-0.288 0.436-0.45 0.658-0.063 0.086-0.137 0.176-0.208 0.266-0.103 0.131-0.26 0.208-0.431 0.208-0.08 0-0.158-0.018-0.23-0.051l-0.179-0.081c-0.091-0.041-0.157-0.121-0.18-0.219-0.023-0.101 3e-3 -0.206 0.07-0.287 0.117-0.14 0.231-0.247 0.335-0.392" style="fill:#221815"/>
  </g>
  <g transform="matrix(.35278 0 0 -.35278 56.785 122.27)">
   <path d="m0 0h-0.074v1.471h1.117c-0.352-0.528-0.652-0.973-1.043-1.471m1.829-4.373h-3.414v1.125h3.414zm0-2.137h-3.414v1.126h3.414zm1.296 6.51h-1.82c0.982 1.344 1.675 2.552 1.981 3.132 0.051 0.098 0.068 0.186 0.034 0.293-0.036 0.109-0.122 0.158-0.196 0.207l-0.249 0.134c-0.097 0.045-0.175 0.05-0.241 0.05-0.163 0-0.252-0.097-0.326-0.24-0.16-0.304-0.421-0.748-0.632-1.101-0.027 4e-3 -0.053 6e-3 -0.077 6e-3h-1.673v0.905c0 0.239-0.194 0.43-0.43 0.43h-0.227c-0.237 0-0.43-0.191-0.43-0.43v-0.905h-2.115c-0.237 0-0.43-0.192-0.43-0.429v-0.15c0-0.238 0.193-0.431 0.43-0.431h2.115v-1.471h-2.78c-0.237 0-0.43-0.194-0.43-0.431v-0.15c0-0.237 0.193-0.43 0.43-0.43h3.106c-1.238-1.406-2.525-2.512-3.825-3.285-0.198-0.118-0.272-0.305-0.158-0.514l0.125-0.234c0.074-0.138 0.172-0.208 0.325-0.208 0.075 0 0.185 0.043 0.25 0.081 0.467 0.277 0.941 0.599 1.413 0.961v-2.879c0-0.238 0.192-0.431 0.429-0.431h4.759c0.237 0 0.429 0.193 0.429 0.431v4.421c0 0.237-0.192 0.43-0.429 0.43h-3.026c0.369 0.392 0.729 0.805 1.071 1.227h2.597c0.237 0 0.43 0.193 0.43 0.43v0.15c0 0.237-0.193 0.431-0.43 0.431" style="fill:#221815"/>
  </g>
  <g transform="matrix(.35278 0 0 -.35278 59.593 122.66)">
   <path d="m0 0-0.233 0.185 1.866 2.919c0.157 0.248 0.168 0.562 0.028 0.819-0.142 0.257-0.411 0.416-0.705 0.416h-4.286c-0.236 0-0.429-0.192-0.429-0.428v-10.165c0-0.238 0.193-0.43 0.429-0.43h0.262c0.236 0 0.429 0.192 0.429 0.43v9.636h2.96c0.033 0 0.065-0.019 0.081-0.049 0.017-0.03 0.016-0.067-2e-3 -0.095l-1.853-2.886c-0.063-0.095-0.087-0.208-0.069-0.319 0.018-0.113 0.076-0.217 0.165-0.294l0.573-0.469c0.292-0.229 0.782-0.538 1.191-1.07 0.497-0.646 0.738-1.405 0.715-2.112-5e-3 -0.161-0.032-0.297-0.081-0.416-0.049-0.121-0.122-0.224-0.22-0.313-0.165-0.155-0.402-0.271-0.706-0.348-0.305-0.076-0.676-0.115-1.135-0.118h-0.49c-0.237 0-0.43-0.192-0.43-0.43v-0.099c0-0.238 0.193-0.431 0.43-0.431h0.677c0.574 3e-3 1.072 0.063 1.48 0.181 0.408 0.117 0.747 0.3 1.005 0.539 0.191 0.177 0.339 0.385 0.44 0.619 0.107 0.246 0.165 0.51 0.175 0.786 0.066 2.112-1.629 3.441-2.267 3.942" style="fill:#221815"/>
  </g>
  <g transform="matrix(.35278 0 0 -.35278 73.455 121.49)">
   <path d="m0 0h-6.113v1.171c0 0.238-0.194 0.43-0.431 0.43h-0.335c-0.238 0-0.431-0.192-0.431-0.43v-1.171h-6.113c-0.238 0-0.43-0.193-0.43-0.43v-0.298c0-0.237 0.192-0.43 0.43-0.43h3.447c-0.091-0.023-0.177-0.073-0.242-0.149-0.408-0.475-0.861-0.939-1.343-1.378-0.563-0.512-1.152-0.979-1.75-1.388-0.089-0.061-0.148-0.153-0.165-0.26-0.019-0.11 0.01-0.225 0.078-0.313l0.18-0.241c0.085-0.113 0.22-0.181 0.363-0.181 0.09 0 0.179 0.027 0.254 0.08 0.628 0.431 1.24 0.919 1.819 1.447 0.53 0.482 1.025 0.993 1.473 1.516 0.075 0.088 0.111 0.2 0.1 0.316-0.011 0.114-0.066 0.216-0.157 0.288l-0.234 0.185c-0.051 0.042-0.112 0.065-0.175 0.078h6.127c-0.063-0.013-0.125-0.036-0.176-0.078l-0.234-0.185c-0.089-0.072-0.146-0.174-0.156-0.288-0.012-0.116 0.025-0.228 0.099-0.316 0.449-0.523 0.944-1.034 1.473-1.516 0.58-0.528 1.192-1.016 1.82-1.447 0.075-0.053 0.163-0.08 0.254-0.08 0.142 0 0.277 0.068 0.362 0.181l0.182 0.241c0.068 0.088 0.096 0.203 0.078 0.313-0.017 0.107-0.076 0.199-0.167 0.26-0.598 0.409-1.186 0.876-1.749 1.388-0.483 0.439-0.934 0.903-1.343 1.378-0.065 0.076-0.15 0.126-0.243 0.149h3.448c0.238 0 0.431 0.193 0.431 0.43v0.298c0 0.237-0.193 0.43-0.431 0.43" style="fill:#221815"/>
  </g>
  <g transform="matrix(.35278 0 0 -.35278 73.467 124.51)">
   <path d="m0 0c-2 0.076-4.125 0.828-5.833 2.064 0.911 0.834 1.677 1.788 2.341 2.911 0.122 0.206 0.055 0.476-0.149 0.602l-0.255 0.158c-0.063 0.04-0.136 0.061-0.21 0.061-0.151 0-0.295-0.084-0.375-0.219-0.642-1.085-1.383-1.994-2.267-2.78-0.883 0.786-1.625 1.695-2.264 2.78-0.08 0.135-0.224 0.219-0.377 0.219-0.074 0-0.146-0.021-0.21-0.061l-0.255-0.158c-0.204-0.126-0.27-0.396-0.148-0.602 0.664-1.123 1.43-2.077 2.341-2.911-1.708-1.236-3.833-1.988-5.833-2.064-0.109-4e-3 -0.21-0.052-0.282-0.135-0.072-0.082-0.107-0.192-0.096-0.302l0.03-0.301c0.024-0.237 0.217-0.415 0.45-0.415h0.02c2.248 0.107 4.528 0.923 6.419 2.299 0.044 0.033 0.088 0.066 0.131 0.101 0.025 0.019 0.05 0.038 0.074 0.057 0.026-0.019 0.051-0.038 0.076-0.057 0.043-0.035 0.086-0.068 0.13-0.101 1.893-1.376 4.171-2.192 6.418-2.299h0.022c0.232 0 0.426 0.178 0.449 0.415l0.03 0.301c0.011 0.11-0.023 0.22-0.095 0.302-0.073 0.083-0.173 0.131-0.282 0.135" style="fill:#221815"/>
  </g>
  <g transform="matrix(.35278 0 0 -.35278 55.904 127.95)">
   <path d="m0 0c-0.037 0-0.062 0.025-0.062 0.062v3.351c0 0.026-0.014 0.037-0.04 0.037h-1.08c-0.037 0-0.062 0.025-0.062 0.064v0.698c0 0.038 0.025 0.064 0.062 0.064h3.162c0.039 0 0.063-0.026 0.063-0.064v-0.698c0-0.039-0.024-0.064-0.063-0.064h-1.082c-0.023 0-0.037-0.011-0.037-0.037v-3.351c0-0.037-0.025-0.062-0.063-0.062z" style="fill:#221815"/>
  </g>
  <g transform="matrix(.35278 0 0 -.35278 57.715 127.52)">
   <path d="m0 0c0.05 0.149 0.069 0.358 0.069 0.917s-0.019 0.767-0.069 0.919c-0.094 0.294-0.321 0.471-0.674 0.471-0.352 0-0.577-0.177-0.672-0.471-0.05-0.152-0.069-0.36-0.069-0.919s0.019-0.768 0.069-0.917c0.095-0.296 0.32-0.472 0.672-0.472 0.353 0 0.58 0.176 0.674 0.472m-2.233-0.252c-0.093 0.295-0.119 0.533-0.119 1.169 0 0.635 0.026 0.875 0.119 1.17 0.221 0.691 0.813 1.037 1.559 1.037 0.748 0 1.34-0.346 1.561-1.037 0.093-0.295 0.119-0.535 0.119-1.17 0-0.636-0.026-0.874-0.119-1.169-0.221-0.692-0.813-1.038-1.561-1.038-0.746 0-1.338 0.346-1.559 1.038" style="fill:#221815"/>
  </g>
  <g transform="matrix(.35278 0 0 -.35278 58.449 126.46)">
   <path d="m0 0c0 0.038 0.026 0.063 0.063 0.063h2.743c0.037 0 0.062-0.025 0.062-0.063v-0.673c0-0.037-0.025-0.064-0.062-0.064h-1.843c-0.026 0-0.037-0.013-0.037-0.036v-0.849c0-0.026 0.011-0.038 0.037-0.038h1.534c0.038 0 0.063-0.026 0.063-0.064v-0.665c0-0.039-0.025-0.063-0.063-0.063h-1.534c-0.026 0-0.037-0.014-0.037-0.039v-0.885c0-0.027 0.011-0.039 0.037-0.039h1.843c0.037 0 0.062-0.024 0.062-0.063v-0.672c0-0.037-0.025-0.062-0.062-0.062h-2.743c-0.037 0-0.063 0.025-0.063 0.062z" style="fill:#221815"/>
  </g>
  <g transform="matrix(.35278 0 0 -.35278 59.901 126.46)">
   <path d="m0 0c0 0.038 0.025 0.063 0.063 0.063h0.799c0.036 0 0.063-0.025 0.063-0.063v-4.15c0-0.037-0.027-0.062-0.063-0.062h-0.799c-0.038 0-0.063 0.025-0.063 0.062z" style="fill:#221815"/>
  </g>
  <g transform="matrix(.35278 0 0 -.35278 10.889 264.58)">
   <g clip-path="url(#vlpn)">
    <g transform="translate(143.94 387.32)">
     <path d="m0 0c-0.038 0-0.063 0.025-0.063 0.062v3.653c0 0.024-0.013 0.038-0.039 0.038h-1.168c-0.039 0-0.064 0.026-0.064 0.063v0.396c0 0.038 0.025 0.064 0.064 0.064h2.975c0.037 0 0.062-0.026 0.062-0.064v-0.396c0-0.037-0.025-0.063-0.062-0.063h-1.17c-0.026 0-0.038-0.014-0.038-0.038v-3.653c0-0.037-0.026-0.062-0.064-0.062z" style="fill:#727171"/>
    </g>
   </g>
   <g clip-path="url(#vlpm)">
    <g transform="translate(149.11 390.36)">
     <path d="m0 0c0 0.445-0.298 0.711-0.794 0.711h-1c-0.025 0-0.037-0.014-0.037-0.039v-1.346c0-0.024 0.012-0.037 0.037-0.037h1c0.496 0 0.794 0.265 0.794 0.711m0.087-3.042c-0.043 0-0.061 0.018-0.081 0.062l-0.856 1.747h-0.944c-0.025 0-0.037-0.012-0.037-0.037v-1.71c0-0.038-0.025-0.062-0.064-0.062h-0.434c-0.037 0-0.062 0.024-0.062 0.062v4.15c0 0.038 0.025 0.063 0.062 0.063h1.547c0.802 0 1.341-0.49 1.341-1.233 0-0.579-0.329-1.001-0.843-1.164l0.912-1.805c0.024-0.036 6e-3 -0.073-0.038-0.073z" style="fill:#727171"/>
    </g>
   </g>
   <g clip-path="url(#vlpl)">
    <g transform="translate(153.05 388.83)">
     <path d="m0 0-0.671 1.943h-0.012l-0.679-1.943zm-0.954 2.705c0.014 0.038 0.031 0.064 0.077 0.064h0.407c0.044 0 0.07-0.026 0.082-0.064l1.464-4.15c0.012-0.037-5e-3 -0.062-0.044-0.062h-0.44c-0.046 0-0.07 0.018-0.081 0.062l-0.325 0.93h-1.732l-0.323-0.93c-0.02-0.044-0.046-0.062-0.083-0.062h-0.439c-0.037 0-0.058 0.025-0.046 0.062z" style="fill:#727171"/>
    </g>
   </g>
   <g clip-path="url(#vlpk)">
    <g transform="translate(155.16 391.53)">
     <path d="m0 0c0 0.038 0.026 0.063 0.064 0.063h0.4c0.052 0 0.083-0.014 0.11-0.063l1.935-3.207h0.025v3.207c0 0.038 0.027 0.063 0.064 0.063h0.395c0.037 0 0.064-0.025 0.064-0.063v-4.15c0-0.037-0.027-0.062-0.064-0.062h-0.403c-0.043 0-0.081 0.012-0.106 0.062l-1.943 3.194h-0.019v-3.194c0-0.037-0.025-0.062-0.064-0.062h-0.394c-0.038 0-0.064 0.025-0.064 0.062z" style="fill:#727171"/>
    </g>
   </g>
   <g clip-path="url(#vlpj)">
    <g transform="translate(159.43 387.79)">
     <path d="m0 0c-0.025 0.027-0.031 0.063-5e-3 0.094l0.274 0.328c0.026 0.032 0.056 0.032 0.088 7e-3 0.279-0.22 0.705-0.44 1.195-0.44 0.593 0 0.943 0.295 0.943 0.729 0 0.364-0.206 0.609-0.891 0.697l-0.216 0.032c-0.827 0.112-1.254 0.509-1.254 1.182 0 0.759 0.546 1.25 1.395 1.25 0.501 0 0.986-0.163 1.3-0.396 0.031-0.025 0.036-0.055 0.013-0.088l-0.214-0.345c-0.025-0.032-0.057-0.032-0.088-0.012-0.346 0.213-0.668 0.32-1.031 0.32-0.523 0-0.81-0.283-0.81-0.691 0-0.359 0.238-0.598 0.9-0.687l0.205-0.03c0.837-0.114 1.257-0.498 1.257-1.194 0-0.75-0.527-1.29-1.559-1.29-0.604 0-1.188 0.245-1.502 0.534" style="fill:#727171"/>
    </g>
   </g>
   <g clip-path="url(#vlpi)">
    <g transform="translate(166.16 390.32)">
     <path d="m0 0c0 0.465-0.309 0.755-0.836 0.755h-0.956c-0.024 0-0.037-0.014-0.037-0.038v-1.434c0-0.025 0.013-0.038 0.037-0.038h0.956c0.527 0 0.836 0.29 0.836 0.755m-2.326-2.998c-0.039 0-0.064 0.025-0.064 0.062v4.15c0 0.038 0.025 0.064 0.064 0.064h1.52c0.825 0 1.359-0.504 1.359-1.278 0-0.773-0.534-1.276-1.359-1.276h-0.986c-0.024 0-0.037-0.013-0.037-0.037v-1.623c0-0.037-0.026-0.062-0.062-0.062z" style="fill:#727171"/>
    </g>
   </g>
   <g clip-path="url(#vlph)">
    <g transform="translate(170.19 388.41)">
     <path d="m0 0c0.051 0.158 0.095 0.435 0.095 1.051s-0.044 0.893-0.095 1.05c-0.131 0.409-0.434 0.635-0.91 0.635-0.472 0-0.774-0.226-0.906-0.635-0.051-0.157-0.096-0.434-0.096-1.05s0.045-0.893 0.096-1.051c0.132-0.407 0.434-0.633 0.906-0.633 0.476 0 0.779 0.226 0.91 0.633m-2.364-0.155c-0.081 0.245-0.114 0.502-0.114 1.206 0 0.705 0.033 0.963 0.114 1.208 0.22 0.659 0.735 0.999 1.454 0.999 0.722 0 1.237-0.34 1.457-0.999 0.081-0.245 0.114-0.503 0.114-1.208 0-0.704-0.033-0.961-0.114-1.206-0.22-0.66-0.735-1.001-1.457-1.001-0.719 0-1.234 0.341-1.454 1.001" style="fill:#727171"/>
    </g>
   </g>
   <g clip-path="url(#vlpg)">
    <g transform="translate(174.55 390.36)">
     <path d="m0 0c0 0.445-0.295 0.711-0.792 0.711h-1c-0.025 0-0.038-0.014-0.038-0.039v-1.346c0-0.024 0.013-0.037 0.038-0.037h1c0.497 0 0.792 0.265 0.792 0.711m0.087-3.042c-0.043 0-0.062 0.018-0.081 0.062l-0.853 1.747h-0.945c-0.025 0-0.038-0.012-0.038-0.037v-1.71c0-0.038-0.024-0.062-0.062-0.062h-0.435c-0.036 0-0.062 0.024-0.062 0.062v4.15c0 0.038 0.026 0.063 0.062 0.063h1.548c0.799 0 1.339-0.49 1.339-1.233 0-0.579-0.328-1.001-0.844-1.164l0.913-1.805c0.026-0.036 5e-3 -0.073-0.037-0.073z" style="fill:#727171"/>
    </g>
   </g>
   <g clip-path="url(#vlpf)">
    <g transform="translate(177.26 387.32)">
     <path d="m0 0c-0.038 0-0.063 0.025-0.063 0.062v3.653c0 0.024-0.012 0.038-0.038 0.038h-1.168c-0.039 0-0.063 0.026-0.063 0.063v0.396c0 0.038 0.024 0.064 0.063 0.064h2.972c0.039 0 0.063-0.026 0.063-0.064v-0.396c0-0.037-0.024-0.063-0.063-0.063h-1.168c-0.026 0-0.037-0.014-0.037-0.038v-3.653c0-0.037-0.026-0.062-0.063-0.062z" style="fill:#727171"/>
    </g>
   </g>
   <g clip-path="url(#vlpe)">
    <g transform="translate(184.45 387.32)">
     <path d="m0 0c-0.038 0-0.062 0.025-0.062 0.062v3.653c0 0.024-0.013 0.038-0.04 0.038h-1.167c-0.039 0-0.062 0.026-0.062 0.063v0.396c0 0.038 0.023 0.064 0.062 0.064h2.973c0.038 0 0.062-0.026 0.062-0.064v-0.396c0-0.037-0.024-0.063-0.062-0.063h-1.169c-0.027 0-0.038-0.014-0.038-0.038v-3.653c0-0.037-0.025-0.062-0.063-0.062z" style="fill:#727171"/>
    </g>
   </g>
   <g clip-path="url(#vlpd)">
    <g transform="translate(181.76 388.83)">
     <path d="m0 0-0.68 1.943h-0.013l-0.672-1.943zm1.076-1.445c0.01-0.037-7e-3 -0.062-0.045-0.062h-0.44c-0.038 0-0.063 0.018-0.082 0.062l-0.328 0.93h-1.727l-0.329-0.93c-0.012-0.044-0.037-0.062-0.081-0.062h-0.441c-0.037 0-0.055 0.025-0.043 0.062l1.465 4.15c0.013 0.038 0.037 0.064 0.08 0.064h0.41c0.043 0 0.063-0.026 0.075-0.064z" style="fill:#727171"/>
    </g>
   </g>
   <g clip-path="url(#vlpc)">
    <g transform="translate(187.31 391.53)">
     <path d="m0 0c0 0.038 0.025 0.063 0.062 0.063h0.435c0.036 0 0.062-0.025 0.062-0.063v-4.15c0-0.037-0.026-0.062-0.062-0.062h-0.435c-0.037 0-0.062 0.025-0.062 0.062z" style="fill:#727171"/>
    </g>
   </g>
   <g clip-path="url(#vlpb)">
    <g transform="translate(191.68 388.41)">
     <path d="m0 0c0.052 0.158 0.096 0.435 0.096 1.051s-0.044 0.893-0.096 1.05c-0.132 0.409-0.434 0.635-0.911 0.635-0.471 0-0.774-0.226-0.905-0.635-0.05-0.157-0.094-0.434-0.094-1.05s0.044-0.893 0.094-1.051c0.131-0.407 0.434-0.633 0.905-0.633 0.477 0 0.779 0.226 0.911 0.633m-2.363-0.155c-0.082 0.245-0.113 0.502-0.113 1.206 0 0.705 0.031 0.963 0.113 1.208 0.22 0.659 0.736 0.999 1.452 0.999 0.722 0 1.239-0.34 1.458-0.999 0.082-0.245 0.115-0.503 0.115-1.208 0-0.704-0.033-0.961-0.115-1.206-0.219-0.66-0.736-1.001-1.458-1.001-0.716 0-1.232 0.341-1.452 1.001" style="fill:#727171"/>
    </g>
   </g>
   <g clip-path="url(#vlpa)">
    <g transform="translate(193.61 391.53)">
     <path d="m0 0c0 0.038 0.025 0.063 0.062 0.063h0.403c0.051 0 0.081-0.014 0.106-0.063l1.937-3.207h0.025v3.207c0 0.038 0.026 0.063 0.063 0.063h0.396c0.037 0 0.062-0.025 0.062-0.063v-4.15c0-0.037-0.025-0.062-0.062-0.062h-0.403c-0.044 0-0.081 0.012-0.106 0.062l-1.943 3.194h-0.019v-3.194c0-0.037-0.025-0.062-0.063-0.062h-0.396c-0.037 0-0.062 0.025-0.062 0.062z" style="fill:#727171"/>
    </g>
   </g>
  </g>
  <g transform="matrix(.35278 0 0 -.35278 45.978 129.39)">
   <path d="m0 0c0 7.666-6.104 13.9-13.709 14.113v5e-3c0 7.798 6.319 14.121 14.115 14.121 7.798 0 14.117-6.323 14.117-14.121v-5e-3c-7.608-0.213-13.71-6.447-13.71-14.113z" style="fill:#00a041"/>
  </g>
 </g>
</svg>
